<svg width="50" height="50" viewBox="0 0 50 50" fill="none" xmlns="http://www.w3.org/2000/svg">
<path fill-rule="evenodd" clip-rule="evenodd" d="M15.186 24.9998C15.186 19.5883 19.5887 15.1863 25.0001 15.1863C30.4116 15.1863 34.814 19.5883 34.814 24.9998C34.814 30.4112 30.4116 34.8138 25.0001 34.8138C19.5887 34.8138 15.186 30.4112 15.186 24.9998ZM24.3816 21.7189V16.4548C20.146 16.7592 16.759 20.1462 16.4546 24.3811H21.719C21.9724 23.0348 23.035 21.9723 24.3816 21.7189ZM24.3816 33.5453C20.1459 33.2409 16.759 29.8539 16.4546 25.6183H21.7189C21.9724 26.9652 23.0349 28.0277 24.3816 28.2812V33.5453ZM25.0001 22.8963C23.84 22.8963 22.8964 23.8399 22.8964 24.9998C22.8964 26.1602 23.84 27.1038 25.0001 27.1038C26.1603 27.1038 27.1039 26.1602 27.1039 24.9998C27.1039 23.8399 26.1603 22.8963 25.0001 22.8963ZM25.6187 33.5453V28.2812C26.9654 28.0277 28.0279 26.9652 28.2814 25.6183H33.5455C33.241 29.8539 29.8541 33.2409 25.6187 33.5453ZM25.6187 21.7189C26.9653 21.9723 28.0279 23.0348 28.2813 24.3811H33.5455C33.241 20.1462 29.854 16.7592 25.6187 16.4548V21.7189Z" fill="#B7902F"/>
<path fill-rule="evenodd" clip-rule="evenodd" d="M46.6237 21.6603H46.6255C48.5024 21.6603 50 23.1584 50 24.9997C50 26.8422 48.5012 28.3409 46.659 28.3409L41.918 28.0709C41.4725 30.5303 40.5044 32.8089 39.13 34.787L42.6521 37.9284C43.3066 38.5815 43.6531 39.4206 43.6531 40.3152C43.6531 41.2099 43.3066 42.0483 42.6778 42.6772C42.0489 43.3061 41.2101 43.6528 40.3155 43.6528C39.4208 43.6528 38.5817 43.3061 37.9528 42.6772L34.7871 39.1297C32.8091 40.504 30.5307 41.472 28.0714 41.9174L28.3402 46.6237C28.3411 48.5012 26.8423 50 25.0001 50C23.158 50 21.6592 48.5012 21.6592 46.6588L21.929 41.9174C19.4696 41.472 17.1911 40.5039 15.2129 39.1295L12.0713 42.6518C11.4183 43.3061 10.5795 43.6528 9.68482 43.6528C8.79016 43.6528 7.95108 43.3061 7.32221 42.6772C6.69335 42.0483 6.3469 41.2099 6.3469 40.3152C6.3469 39.4206 6.69335 38.5815 7.32221 37.9526L10.8702 34.7869C9.49582 32.8088 8.52773 30.5303 8.0823 28.0709L3.37628 28.3397H3.37446C1.49752 28.3397 0 26.8416 0 24.9997C0 23.1578 1.49875 21.6591 3.34093 21.6591L8.08217 21.9291C8.52753 19.4694 9.4957 17.1908 10.8701 15.2125L7.3479 12.0709C6.69335 11.4179 6.3469 10.5794 6.3469 9.68481C6.3469 8.79014 6.69335 7.95106 7.32221 7.32217C8.62525 6.0192 10.7447 6.01979 12.0471 7.32217L15.2127 10.87C17.1908 9.49556 19.4694 8.52738 21.9289 8.08198L21.6601 3.37567C21.6592 1.49876 23.158 0 25.0001 0C26.8423 0 28.3411 1.49876 28.3411 3.34063L28.0713 8.08198C30.5307 8.52738 32.8092 9.49542 34.7873 10.8698L37.9287 7.34758C39.2553 6.02037 41.3747 6.0192 42.6778 7.32217C43.3066 7.95106 43.6531 8.79014 43.6531 9.68481C43.6531 10.5794 43.3066 11.4179 42.6778 12.0468L39.1299 15.2123C40.5045 17.1906 41.4727 19.4694 41.9181 21.9291L46.6237 21.6603ZM1.23716 24.9997C1.23716 26.1602 2.18075 27.1038 3.34093 27.1038L7.9022 26.8425C7.83736 26.2368 7.80218 25.6224 7.80218 24.9997C7.80218 24.3773 7.8373 23.763 7.90213 23.1575L3.30558 22.8951C2.18075 22.8963 1.23716 23.8398 1.23716 24.9997ZM38.8276 8.19695C39.6479 7.37657 40.9827 7.37657 41.803 8.19695C42.1981 8.59203 42.4159 9.12058 42.4159 9.68481C42.4159 10.249 42.1981 10.777 41.8287 11.1479L38.3857 14.2188C37.6126 13.2607 36.7393 12.3874 35.7812 11.6142L38.8276 8.19695ZM27.1048 3.3056C27.1039 2.1808 26.1603 1.23719 25.0001 1.23719C23.84 1.23719 22.8964 2.1808 22.8964 3.34063L23.1579 7.90183C23.7634 7.83704 24.3777 7.8018 25.0001 7.8018C25.6225 7.8018 26.2368 7.83704 26.8423 7.90183L27.1048 3.3056ZM8.19696 11.1721C7.80186 10.777 7.5841 10.249 7.5841 9.68481C7.5841 9.12058 7.80186 8.59203 8.19696 8.19695C9.01761 7.37713 10.3523 7.37596 11.1483 8.17155L14.2188 11.6144C13.2608 12.3877 12.3876 13.2609 11.6143 14.219L8.19696 11.1721ZM8.19696 41.8025C8.98711 42.592 10.381 42.5926 11.1724 41.8025L14.2191 38.3851C13.2609 37.6119 12.3876 36.7386 11.6144 35.7804L8.17128 38.8515C7.80186 39.2224 7.5841 39.751 7.5841 40.3152C7.5841 40.8794 7.80186 41.4074 8.19696 41.8025ZM25.0001 48.7628C23.84 48.7628 22.8964 47.8192 22.8955 46.6938L23.158 42.0976C23.7635 42.1624 24.3777 42.1976 25.0001 42.1976C25.6226 42.1976 26.2369 42.1624 26.8424 42.0976L27.1039 46.6588C27.1039 47.8192 26.1603 48.7628 25.0001 48.7628ZM42.4159 40.3152C42.4159 39.751 42.1981 39.2224 41.803 38.8273L38.3858 35.7806C37.6125 36.7388 36.7392 37.612 35.781 38.3853L38.8517 41.8279C39.2229 42.1976 39.7512 42.4156 40.3155 42.4156C40.8793 42.4156 41.4076 42.1976 41.803 41.8025C42.1981 41.4074 42.4159 40.8794 42.4159 40.3152ZM25.0001 40.9604C16.1994 40.9604 9.03936 33.8007 9.03936 24.9997C9.03936 16.1987 16.1994 9.03899 25.0001 9.03899C33.8009 9.03899 40.9609 16.1987 40.9609 24.9997C40.9609 33.8007 33.8009 40.9604 25.0001 40.9604ZM42.0981 26.8425L46.6944 27.1049C47.8192 27.1038 48.7628 26.1602 48.7628 24.9997C48.7628 23.8398 47.8192 22.8963 46.659 22.8963L42.0982 23.1575C42.163 23.763 42.1981 24.3773 42.1981 24.9997C42.1981 25.6224 42.1629 26.2367 42.0981 26.8425Z" fill="#B7902F"/>
<path d="M36.0906 19.8027C36.2467 20.1356 36.3887 20.4781 36.5132 20.8206C36.6044 21.0719 36.8418 21.2278 37.0946 21.2278C37.1647 21.2278 37.236 21.2157 37.3057 21.1903C37.6268 21.0738 37.7926 20.7191 37.676 20.3978C37.5392 20.0208 37.3825 19.6439 37.2106 19.2772C37.0656 18.9685 36.6974 18.8356 36.3881 18.98C36.0788 19.1249 35.9456 19.4935 36.0906 19.8027Z" fill="#B7902F"/>
<path d="M25.0002 11.5176C24.6586 11.5176 24.3816 11.7943 24.3816 12.1361C24.3816 12.4781 24.6586 12.7547 25.0002 12.7547C28.7676 12.7547 32.2705 14.4523 34.6107 17.4111C34.7327 17.5657 34.9137 17.646 35.0961 17.646C35.2305 17.646 35.3659 17.6026 35.4794 17.5126C35.7476 17.3006 35.7929 16.9115 35.5809 16.6439C33.0051 13.386 29.1482 11.5176 25.0002 11.5176Z" fill="#B7902F"/>
<path d="M12.8411 26.4586C12.784 25.9796 12.755 25.4891 12.755 24.9997C12.755 24.6578 12.478 24.3811 12.1364 24.3811C11.7948 24.3811 11.5178 24.6578 11.5178 24.9997C11.5178 25.5373 11.5496 26.0774 11.6124 26.6047C11.6498 26.9195 11.9172 27.1503 12.2258 27.1503C12.2503 27.1503 12.2751 27.1491 12.2998 27.1461C12.639 27.1056 12.8813 26.7974 12.8411 26.4586Z" fill="#B7902F"/>
<path d="M21.3703 36.6979C17.6709 35.5519 14.7029 32.6819 13.4304 29.0217C13.3181 28.6985 12.965 28.5264 12.6433 28.6405C12.3204 28.7523 12.1497 29.1051 12.2621 29.4276C13.6627 33.4582 16.9308 36.6175 21.0043 37.8795C21.0653 37.8982 21.1269 37.9072 21.1876 37.9072C21.4516 37.9072 21.6959 37.7369 21.7781 37.4717C21.8793 37.1455 21.6965 36.7988 21.3703 36.6979Z" fill="#B7902F"/>
<path d="M25.0002 37.2446C24.7045 37.2446 24.4115 37.2343 24.1212 37.2137C23.7784 37.1866 23.4842 37.4463 23.4601 37.7864C23.4359 38.1271 23.6923 38.4231 24.0331 38.4473C24.3523 38.4702 24.6749 38.4817 25.0002 38.4817C25.3418 38.4817 25.6188 38.205 25.6188 37.8631C25.6188 37.5212 25.3418 37.2446 25.0002 37.2446Z" fill="#B7902F"/>
</svg>
