<svg width="50" height="50" viewBox="0 0 50 50" fill="none" xmlns="http://www.w3.org/2000/svg">
<path fill-rule="evenodd" clip-rule="evenodd" d="M34.6292 48.4733L33.4083 47.6592C30.7983 45.92 27.7608 45 24.625 45H9.56583C14.6125 42.4592 19.5675 37.6875 24.3458 30.7325C24.7525 30.14 25.1392 29.5533 25.5158 28.9717C25.5242 28.9648 25.5333 28.9593 25.5424 28.9541L25.5489 28.9504C25.563 28.9425 25.5771 28.9345 25.5892 28.9225C25.6975 28.8142 25.7567 28.6808 25.7925 28.5417C28.7525 23.9017 30.7058 19.8 31.355 18.3733C36.1808 20.8792 44.3417 25.0225 44.4425 25.0733C44.5617 25.1333 44.6908 25.1633 44.82 25.1633C44.9717 25.1633 45.1225 25.1225 45.2558 25.04C45.5025 24.8883 45.6533 24.62 45.6533 24.33C45.6533 20.915 43.2717 16.7558 40.325 15H47.5C47.96 15 48.3333 14.6267 48.3333 14.1667C48.3333 10.95 45.7167 8.33333 42.5 8.33333H39.2708L45.2375 4.88833C45.6367 4.65833 45.7725 4.14833 45.5425 3.75C43.9342 0.965 40.3592 0.00583339 37.5742 1.615L30.8333 5.50667V0.833333C30.8333 0.373333 30.46 0 30 0C26.8458 0 24.2683 2.51583 24.1692 5.64667L16.755 1.615C13.9692 0.00666666 10.3958 0.965 8.78667 3.75C8.55667 4.14917 8.69333 4.65833 9.09167 4.88833L15.0592 8.33333H11.83C8.7225 8.33333 5.99667 11.0592 5.99667 14.1667C5.99667 14.6267 6.37 15 6.83 15H14.0042C11.0583 16.755 8.67583 20.915 8.67583 24.33C8.67583 24.6125 8.81917 24.8758 9.05667 25.0292C9.295 25.1833 9.59333 25.2067 9.85083 25.09L25.2667 18.175C20.6583 29.2692 0.705 38.3117 0.493333 38.4058C0.193333 38.54 0 38.8375 0 39.1667V45.8333V49.1667C0 49.6267 0.373333 50 0.833333 50H34.1667C34.5333 50 34.8583 49.7592 34.9642 49.4083C35.0708 49.0567 34.9342 48.6775 34.6292 48.4733ZM27.9992 21.4008L26.045 20.4233C26.5858 19.4225 27.0267 18.3992 27.3392 17.3575L28.2375 17.1333L29.7458 17.8875C29.41 18.6108 28.8167 19.8483 27.9992 21.4008ZM14.9258 16.3917C12.8183 17.6075 10.9883 20.4083 10.4817 22.9808L27.2117 15.4775C27.9042 15.1175 28.7758 15.1233 29.5033 15.5158C32.1533 16.9442 40.5192 21.2075 43.8308 22.8917C43.2992 20.3442 41.4875 17.5942 39.4042 16.3917L36.9933 15H33.3333C32.8733 15 32.5 14.6267 32.5 14.1667C32.5 13.7067 32.8733 13.3333 33.3333 13.3333H37.2167H37.5H46.5825C46.1958 11.4342 44.5125 10 42.5 10H36.3417L32.845 11.5917C32.7333 11.6425 32.6158 11.6667 32.5 11.6667C32.1842 11.6667 31.8817 11.4858 31.7408 11.1792C31.55 10.76 31.7358 10.2658 32.1542 10.075L35.7775 8.425L43.6092 3.90333C42.3242 2.45167 40.1492 2.0525 38.4067 3.05833L30.4167 7.67167C30.1583 7.82083 29.8417 7.82 29.5833 7.67167C29.325 7.52333 29.1667 7.2475 29.1667 6.95V1.75083C27.2675 2.1375 25.8333 3.82083 25.8333 5.83333V7.04667C25.8333 7.34083 25.6783 7.6125 25.4258 7.7625C25.1725 7.91333 24.8592 7.91833 24.6017 7.77833L15.94 3.06833C14.1817 2.05333 12.0042 2.4525 10.7192 3.90333L18.5508 8.425L22.1742 10.075C22.5933 10.2658 22.7783 10.76 22.5875 11.1792C22.4475 11.4858 22.145 11.6667 21.8283 11.6667C21.7125 11.6667 21.5958 11.6425 21.4833 11.5917L17.9875 10H11.8292C9.77833 10 8.17333 11.6267 7.76417 13.3333H16.6667H17.1125H20.8333C21.2933 13.3333 21.6667 13.7067 21.6667 14.1667C21.6667 14.6267 21.2933 15 20.8333 15H17.3358L14.9258 16.3917ZM25.1875 21.8592L27.2075 22.8692C26.5192 24.1183 25.7158 25.5033 24.805 26.96L22.8117 24.9667C23.6933 23.9633 24.4942 22.9258 25.1875 21.8592ZM23.8867 28.3983L21.6808 26.1925C20.6942 27.2125 19.6358 28.1933 18.535 29.1258L21.1083 32.3433C22.1067 31.025 23.0375 29.695 23.8867 28.3983ZM17.245 30.1817L20.0567 33.6958C19.0625 34.9358 18.005 36.1492 16.8908 37.3L13.3467 33.0475C14.6483 32.1608 15.9633 31.2017 17.245 30.1817ZM15.7025 38.4775L11.95 33.9742C10.22 35.0975 8.5525 36.0858 7.06417 36.9183L11.04 42.22C12.6767 41.1542 14.2333 39.8792 15.7025 38.4775ZM1.66667 39.7017C2.38167 39.3683 3.78833 38.6908 5.5875 37.7275L9.60833 43.0892C8.09583 43.9325 6.52417 44.5917 4.89833 45H1.66667V39.7017ZM1.66667 46.6667V48.3333H31.2933C29.2458 47.24 26.9667 46.6667 24.625 46.6667H5H1.66667Z" fill="#C7A961"/>
<path fill-rule="evenodd" clip-rule="evenodd" d="M38.3333 28.3334C41.0908 28.3334 43.3333 30.5759 43.3333 33.3334C43.3333 36.0909 41.0908 38.3334 38.3333 38.3334C35.5758 38.3334 33.3333 36.0909 33.3333 33.3334C33.3333 30.5759 35.5758 28.3334 38.3333 28.3334ZM34.9999 33.3334C34.9999 35.1717 36.4949 36.6667 38.3333 36.6667C40.1716 36.6667 41.6666 35.1717 41.6666 33.3334C41.6666 31.495 40.1716 30 38.3333 30C36.4949 30 34.9999 31.495 34.9999 33.3334Z" fill="#C7A961"/>
<path d="M49.1667 42.5H48.3034C48.1009 41.0883 46.8834 40 45.4167 40C43.9501 40 42.7326 41.0883 42.5301 42.5H40.0001C39.5401 42.5 39.1667 42.8733 39.1667 43.3333C39.1667 43.7933 39.5401 44.1667 40.0001 44.1667H43.3334C43.7934 44.1667 44.1667 43.7933 44.1667 43.3333V42.9167C44.1667 42.2275 44.7276 41.6667 45.4167 41.6667C46.1059 41.6667 46.6667 42.2275 46.6667 42.9167V43.3333C46.6667 43.7933 47.0401 44.1667 47.5001 44.1667H49.1667C49.6267 44.1667 50.0001 43.7933 50.0001 43.3333C50.0001 42.8733 49.6267 42.5 49.1667 42.5Z" fill="#C7A961"/>
<path d="M36.6667 42.5H35.8333C35.3733 42.5 35 42.8733 35 43.3333C35 43.7933 35.3733 44.1667 35.8333 44.1667H36.6667C37.1267 44.1667 37.5 43.7933 37.5 43.3333C37.5 42.8733 37.1267 42.5 36.6667 42.5Z" fill="#C7A961"/>
<path d="M43.3334 45.8334H42.5001C42.0401 45.8334 41.6667 46.2067 41.6667 46.6667C41.6667 47.1267 42.0401 47.5 42.5001 47.5H43.3334C43.7934 47.5 44.1667 47.1267 44.1667 46.6667C44.1667 46.2067 43.7934 45.8334 43.3334 45.8334Z" fill="#C7A961"/>
<path d="M28.3334 40H31.6667C32.1267 40 32.5001 39.6267 32.5001 39.1667C32.5001 38.7067 32.1267 38.3334 31.6667 38.3334H29.1667C29.1667 36.955 28.0451 35.8334 26.6667 35.8334C25.2884 35.8334 24.1667 36.955 24.1667 38.3334V39.1667C24.1667 39.6267 24.5401 40 25.0001 40C25.4601 40 25.8334 39.6267 25.8334 39.1667V38.3334C25.8334 37.8742 26.2076 37.5 26.6667 37.5C27.1259 37.5 27.5001 37.8742 27.5001 38.3334V39.1667C27.5001 39.6267 27.8734 40 28.3334 40Z" fill="#C7A961"/>
</svg>
