<svg width="50" height="48" viewBox="0 0 50 48" fill="none" xmlns="http://www.w3.org/2000/svg">
<path fill-rule="evenodd" clip-rule="evenodd" d="M49.0385 41.2814C49.4084 41.2814 49.7446 41.4883 49.9052 41.8212C50.0648 42.1534 50.0207 42.5485 49.7897 42.8364L45.9435 47.6355C45.7604 47.8632 45.4844 48 45.1923 48H2.88456C2.49111 48 2.13808 47.7577 1.99159 47.3936L0.0685463 42.5914C-0.0498131 42.2958 -0.013192 41.9629 0.165226 41.699C0.344621 41.4351 0.642277 41.2814 0.961515 41.2814H49.0385ZM3.53534 46.0803H44.7303L47.0375 43.201H2.38134L3.53534 46.0803Z" fill="#C7A961"/>
<path fill-rule="evenodd" clip-rule="evenodd" d="M21.1987 9.42228C21.2897 8.93399 21.7738 8.59564 22.2602 8.64341C22.7541 8.68932 23.1884 9.10312 23.1886 9.59901V37.4334C23.1886 37.9635 22.6469 38.4018 22.1155 38.4018H6.73083C6.34206 38.4018 5.99792 38.1638 5.84958 37.8052C5.70026 37.4463 5.78972 37.0296 6.06481 36.7549C18.2136 24.6274 21.1696 9.57269 21.1987 9.42228ZM8.98522 36.4822H21.2653V16.3177C19.3422 21.6163 15.5667 29.2837 8.98522 36.4822Z" fill="#C7A961"/>
<path fill-rule="evenodd" clip-rule="evenodd" d="M27.0591 0.0100929C27.3549 0.052302 34.3759 1.19019 40.2962 13.9949C46.1631 26.6852 42.4128 37.3251 42.2494 37.7717C42.1114 38.1512 41.7507 38.4018 41.3461 38.4018H26.923C26.3916 38.4018 26.073 37.9762 26.073 37.4461V0.960626C26.073 0.682222 26.1382 0.417659 26.3486 0.235371C26.5589 0.0529843 26.7831 -0.0305566 27.0591 0.0100929ZM27.996 36.4822H40.6363C41.3151 34.0827 43.3446 25.0477 38.6054 14.7981C34.5348 5.99443 29.9191 3.15355 27.996 2.27759V36.4822Z" fill="#C7A961"/>
</svg>
