<svg width="50" height="34" viewBox="0 0 50 34" fill="none" xmlns="http://www.w3.org/2000/svg">
<path d="M25 4.25C17.9609 4.25 12.2341 9.96969 12.2341 17C12.2341 24.0302 17.9609 29.7499 25 29.7499C27.825 29.7499 30.5025 28.8462 32.7429 27.1366C33.0931 26.8694 33.1601 26.3694 32.8926 26.0196C32.6251 25.67 32.1244 25.6029 31.7743 25.8701C29.8144 27.3657 27.4719 28.1562 25.0001 28.1562C18.8408 28.1562 13.8299 23.1515 13.8299 17C13.8299 10.8484 18.8408 5.84371 25.0001 5.84371C31.1593 5.84371 36.1703 10.8484 36.1703 17C36.1703 19.4686 35.3789 21.8082 33.8813 23.7657C33.6137 24.1155 33.6808 24.6155 34.031 24.8827C34.381 25.1499 34.8819 25.0829 35.1494 24.7331C36.8612 22.4954 37.766 19.8212 37.766 16.9999C37.7659 9.9696 32.0391 4.25 25 4.25Z" fill="#C7A961"/>
<path fill-rule="evenodd" clip-rule="evenodd" d="M7.97876 17C7.97876 7.62619 15.6145 0 25 0C34.3856 0 42.0212 7.62619 42.0212 17C42.0212 26.3738 34.3856 34 25 34C15.6145 34 7.97876 26.3738 7.97876 17ZM9.57455 17C9.57455 25.4949 16.4944 32.4062 25 32.4062C33.5056 32.4062 40.4254 25.495 40.4254 17C40.4254 8.50497 33.5056 1.5938 25 1.5938C16.4944 1.5938 9.57455 8.50507 9.57455 17Z" fill="#C7A961"/>
<path fill-rule="evenodd" clip-rule="evenodd" d="M24.9999 11.7314C25.8625 10.8268 27.0687 10.2954 28.3498 10.2954C30.9021 10.2954 32.9786 12.3693 32.9786 14.9184C32.9786 20.6851 25.6911 24.7068 25.3809 24.8752C25.2621 24.9397 25.131 24.9719 24.9999 24.9719C24.8689 24.9719 24.7378 24.9397 24.619 24.8752C24.3088 24.7069 17.0212 20.6851 17.0212 14.9184C17.0212 12.3693 19.0977 10.2954 21.65 10.2954C22.9312 10.2954 24.1373 10.8269 24.9999 11.7314ZM18.617 14.9184C18.617 19.072 23.5699 22.3829 24.9994 23.2516C26.4281 22.3812 31.3829 19.0625 31.3831 14.9184C31.3831 13.2481 30.0225 11.8891 28.35 11.8891C27.2494 11.8891 26.2333 12.4884 25.6979 13.4529C25.5571 13.7063 25.2902 13.8634 25 13.8634C24.7099 13.8634 24.4428 13.7062 24.3022 13.4529C23.7667 12.4884 22.7505 11.8891 21.6501 11.8891C19.9777 11.8891 18.617 13.2481 18.617 14.9184Z" fill="#C7A961"/>
<path fill-rule="evenodd" clip-rule="evenodd" d="M6.38298 0.796854C6.38298 0.35678 6.74021 0 7.18083 0C7.62145 0 7.97868 0.35678 7.97868 0.796854V9.29685C7.97868 10.554 7.37741 11.7362 6.38298 12.4833V31.6093C6.38298 32.9276 5.30926 34 3.98934 34C2.66942 34 1.5957 32.9276 1.5957 31.6093V12.4833C0.601267 11.7362 0 10.554 0 9.29685V0.796854C0 0.35678 0.357225 0 0.797848 0C1.23847 0 1.5957 0.35678 1.5957 0.796854V6.37493H3.19159V0.796854C3.19159 0.35678 3.54881 0 3.98944 0C4.43006 0 4.78729 0.35678 4.78729 0.796854V6.37493H6.38298V0.796854ZM5.18553 11.3671C5.9242 10.9402 6.38298 10.147 6.38298 9.29685H6.38289V7.96883H1.5957V9.29695C1.5957 10.1471 2.05458 10.9403 2.79315 11.3673C3.03964 11.5097 3.19149 11.7726 3.19149 12.057V31.6093C3.19149 32.0487 3.5494 32.4062 3.98934 32.4062C4.42928 32.4062 4.78719 32.0488 4.78719 31.6093V12.0569C4.78719 11.7725 4.93904 11.5096 5.18553 11.3671Z" fill="#C7A961"/>
<path fill-rule="evenodd" clip-rule="evenodd" d="M43.6169 5.65395C43.6169 2.53637 46.1224 0 49.202 0C49.6427 0 49.9998 0.35678 50 0.796854V31.6093C50 32.9276 48.9262 34 47.6064 34C46.2866 34 45.2127 32.9276 45.2127 31.6093V21.7812C45.2127 21.3411 45.5699 20.9844 46.0106 20.9844C46.4513 20.9844 46.8084 21.3411 46.8084 21.7812V31.6093C46.8084 32.0487 47.1662 32.4062 47.6063 32.4062C48.0462 32.4062 48.4041 32.0488 48.4041 31.6093V19.3906H44.4148C43.9741 19.3906 43.6169 19.0338 43.6169 18.5937V5.65395ZM45.2126 17.7969H48.4041V1.67525C46.5854 2.05251 45.2126 3.69323 45.2126 5.65395V17.7969Z" fill="#C7A961"/>
</svg>
