<svg width="50" height="50" viewBox="0 0 50 50" fill="none" xmlns="http://www.w3.org/2000/svg">
<path fill-rule="evenodd" clip-rule="evenodd" d="M14.1999 42.9833H35.9796C37.6942 42.9833 39.432 41.7519 40.0112 40.1487L49.3719 13.8708C50.6463 10.2695 49.7426 8.61989 48.7695 7.8764C47.7732 7.15614 45.9659 6.71469 42.8611 8.94517L34.3809 15.0093C34.126 15.2184 33.8712 15.2881 33.6626 15.2184C33.4541 15.1487 33.2919 14.9396 33.1761 14.6376L29.0981 3.74071C27.8701 0.487919 26.0628 0 25.0897 0C24.1166 0 22.3093 0.487919 21.0813 3.74071L17.0035 14.6376C16.8876 14.9628 16.7254 15.1487 16.5169 15.2184C16.3315 15.2649 16.0766 15.1952 15.7986 15.0325L6.7623 8.55019C3.84288 6.45911 2.1051 6.87733 1.1783 7.57435C0.251502 8.27138 -0.605778 9.82807 0.575882 13.2203L10.1683 40.1487C10.7476 41.7519 12.4853 42.9833 14.1999 42.9833ZM3.86603 12.0353C3.63433 11.4312 3.54167 10.9665 3.49533 10.6413C3.79654 10.7574 4.2136 10.9898 4.74651 11.3615L13.7828 17.8439C14.9182 18.6571 16.3083 18.9126 17.5363 18.5409C18.7875 18.1692 19.7839 17.1933 20.2704 15.869L24.3483 4.97212C24.6495 4.18216 24.9275 3.78718 25.0897 3.6013C25.2519 3.78718 25.5299 4.18216 25.8312 4.99536L29.9091 15.8922C30.4188 17.2166 31.4151 18.1924 32.6431 18.5641C33.8712 18.9359 35.2382 18.6803 36.3967 17.8671L44.8769 11.803C45.6415 11.2454 46.1744 10.9898 46.522 10.8736C46.4988 11.2221 46.4061 11.8262 46.0818 12.7091L36.7211 38.9637C36.6516 39.1961 36.2345 39.4981 35.9796 39.4981H14.1999C13.9682 39.4981 13.5511 39.1961 13.4584 38.9637L3.86603 12.0353Z" fill="#C7A961"/>
<path d="M37.8334 50H12.3464C11.3964 50 10.6086 49.2101 10.6086 48.2575C10.6086 47.3049 11.3964 46.5149 12.3464 46.5149H37.8334C38.7834 46.5149 39.5712 47.3049 39.5712 48.2575C39.5712 49.2101 38.7834 50 37.8334 50Z" fill="#C7A961"/>
<path d="M30.8823 31.4126H19.2973C18.3474 31.4126 17.5596 30.6227 17.5596 29.6701C17.5596 28.7175 18.3474 27.9275 19.2973 27.9275H30.8823C31.8323 27.9275 32.6201 28.7175 32.6201 29.6701C32.6201 30.6227 31.8323 31.4126 30.8823 31.4126Z" fill="#C7A961"/>
</svg>
