<svg width="50" height="50" viewBox="0 0 50 50" fill="none" xmlns="http://www.w3.org/2000/svg">
<path fill-rule="evenodd" clip-rule="evenodd" d="M25 16.475C26.2708 14.9336 28.176 14.0139 30.2109 14.0139C33.9369 14.0139 36.9681 17.0453 36.9681 20.7711C36.9681 24.4135 34.9473 28.1919 31.1244 31.6978C28.2921 34.2952 25.4985 35.8253 25.381 35.8893C25.2623 35.9538 25.1311 35.9861 25 35.9861C24.869 35.9861 24.7378 35.9538 24.6191 35.8893C24.5017 35.8254 21.708 34.2952 18.8757 31.6978C15.0527 28.192 13.032 24.4136 13.032 20.7711C13.032 17.0452 16.0632 14.0139 19.7891 14.0139C21.8241 14.0139 23.7293 14.9335 25 16.475ZM14.6277 20.7711C14.6277 27.6966 23.0853 33.1266 25 34.2668C26.9148 33.1267 35.3724 27.6967 35.3726 20.7711C35.3726 17.925 33.0572 15.6096 30.2111 15.6096C28.3382 15.6096 26.6089 16.6305 25.698 18.2737C25.5573 18.5273 25.2903 18.6846 25.0001 18.6846C24.7101 18.6846 24.4429 18.5273 24.3023 18.2737C23.3913 16.6304 21.6619 15.6096 19.7891 15.6096C16.9431 15.6096 14.6277 17.925 14.6277 20.7711Z" fill="#C7A961"/>
<path fill-rule="evenodd" clip-rule="evenodd" d="M48.2228 14.6277C49.2983 15.4008 50 16.6625 50 18.0852C50 19.5078 49.2983 20.7694 48.2228 21.5426C49.2983 22.3156 50 23.5773 50 25C50 26.4227 49.2983 27.6844 48.2228 28.4575C49.2983 29.2306 50 30.4923 50 31.9149C50 33.3376 49.2983 34.5992 48.2228 35.3724C49.2983 36.1454 50 37.4071 50 38.8298C50 40.2515 49.2992 41.5127 48.2248 42.2858C48.411 42.42 48.5879 42.5702 48.7535 42.7357C50.4212 44.4034 49.0918 48.0622 48.9348 48.4738C48.8537 48.6861 48.686 48.8539 48.4737 48.9349C48.404 48.9615 46.7452 49.5874 45.1676 49.5874C44.1071 49.5874 43.2889 49.3069 42.7356 48.7536C42.5702 48.5881 42.4199 48.4113 42.2856 48.225C41.5126 49.2992 40.2514 50 38.8298 50C37.4071 50 36.1454 49.2984 35.3724 48.2229C34.5993 49.2984 33.3376 50 31.9149 50C30.4922 50 29.2306 49.2984 28.4574 48.2229C27.6844 49.2984 26.4227 50 25 50C23.5773 50 22.3156 49.2984 21.5426 48.2229C20.7695 49.2984 19.5078 50 18.0852 50C16.6624 50 15.4008 49.2984 14.6276 48.2229C13.8546 49.2984 12.5929 50 11.1702 50C9.74863 50 8.4874 49.2991 7.71426 48.2248C7.58008 48.4111 7.42979 48.588 7.26426 48.7536C6.71094 49.3067 5.89287 49.5873 4.83232 49.5873C3.25488 49.5873 1.59609 48.9614 1.52627 48.9349C1.31396 48.8538 1.14619 48.686 1.06514 48.4737C0.908105 48.062 -0.421289 44.4032 1.24648 42.7356C1.41201 42.5702 1.58887 42.4199 1.7751 42.2857C0.700879 41.5126 0 40.2514 0 38.8298C0 37.4071 0.70166 36.1454 1.77725 35.3724C0.70166 34.5993 0 33.3376 0 31.9149C0 30.4922 0.70166 29.2306 1.77725 28.4574C0.70166 27.6844 0 26.4227 0 25C0 23.5773 0.70166 22.3156 1.77725 21.5426C0.70166 20.7695 0 19.5078 0 18.0852C0 16.6624 0.70166 15.4008 1.77725 14.6276C0.70166 13.8546 0 12.5929 0 11.1702C0 9.74863 0.700781 8.4874 1.7751 7.71426C1.58877 7.58008 1.41191 7.42988 1.24639 7.26426C-0.421289 5.59658 0.908105 1.93789 1.06523 1.52627C1.14629 1.31396 1.31406 1.14619 1.52627 1.06514C1.59619 1.03857 3.25479 0.412695 4.83242 0.412695C5.89287 0.412695 6.71104 0.693164 7.26436 1.24648C7.42979 1.41201 7.58008 1.58887 7.71436 1.7751C8.4874 0.700879 9.74863 0 11.1702 0C12.5929 0 13.8546 0.70166 14.6277 1.77725C15.4008 0.70166 16.6625 0 18.0852 0C19.5078 0 20.7694 0.70166 21.5426 1.77725C22.3156 0.70166 23.5773 0 25 0C26.4227 0 27.6844 0.70166 28.4575 1.77725C29.2306 0.70166 30.4923 0 31.9149 0C33.3376 0 34.5992 0.70166 35.3724 1.77725C36.1454 0.70166 37.4071 0 38.8298 0C40.2514 0 41.5126 0.700879 42.2857 1.7751C42.4199 1.58887 42.5702 1.41201 42.7358 1.24639C43.2891 0.693262 44.1071 0.412695 45.1677 0.412695C46.7451 0.412695 48.4039 1.03857 48.4737 1.06514C48.686 1.14619 48.8538 1.31396 48.9349 1.52627C49.0919 1.93799 50.4213 5.59678 48.7535 7.26436C48.588 7.42979 48.4112 7.58008 48.2249 7.71426C49.2991 8.4874 50 9.74863 50 11.1702C50 12.5929 49.2983 13.8546 48.2228 14.6277ZM46.5426 13.7073C47.6205 13.3677 48.4043 12.3588 48.4043 11.1702C48.4043 9.98164 47.6204 8.97275 46.5426 8.63311V13.7073ZM43.8642 2.37471C44.167 2.07197 44.7402 2.0084 45.1677 2.0084C46.0713 2.0084 47.0582 2.27939 47.564 2.44014C47.9206 3.54971 48.2895 5.47158 47.6251 6.13584C47.317 6.44395 46.9466 6.6667 46.5425 6.79326V4.25527C46.5425 3.81455 46.1854 3.45742 45.7446 3.45742H43.2067C43.3333 3.05332 43.5561 2.68281 43.8642 2.37471ZM41.3669 3.45742C41.0272 2.37949 40.0184 1.5957 38.8298 1.5957C37.6412 1.5957 36.6323 2.37959 36.2927 3.45742H41.3669ZM31.9149 1.5957C33.1035 1.5957 34.1124 2.37949 34.452 3.45742H29.3778C29.7175 2.37959 30.7263 1.5957 31.9149 1.5957ZM27.5371 3.45742C27.1975 2.37949 26.1886 1.5957 25 1.5957C23.8114 1.5957 22.8025 2.37959 22.4629 3.45742H27.5371ZM18.0852 1.5957C19.2737 1.5957 20.2826 2.37949 20.6223 3.45742H15.548C15.8877 2.37959 16.8965 1.5957 18.0852 1.5957ZM13.7073 3.45742C13.3677 2.37949 12.3588 1.5957 11.1702 1.5957C9.98164 1.5957 8.97275 2.37959 8.63311 3.45742H13.7073ZM2.43584 2.44023C2.94209 2.2793 3.92871 2.0084 4.83223 2.0084C5.25977 2.0084 5.83291 2.07188 6.13584 2.3748C6.44395 2.68291 6.6666 3.05322 6.79316 3.45742H4.25527C3.81455 3.45742 3.45742 3.81455 3.45742 4.25527V6.79316C3.05312 6.6667 2.68271 6.44395 2.3748 6.13584C1.71035 5.47158 2.07959 3.54902 2.43584 2.44023ZM3.45742 8.63311C2.37949 8.97275 1.5957 9.98164 1.5957 11.1702C1.5957 12.3588 2.37959 13.3677 3.45742 13.7073V8.63311ZM1.5957 18.0852C1.5957 16.8966 2.37949 15.8877 3.45742 15.548V20.6223C2.37959 20.2825 1.5957 19.2737 1.5957 18.0852ZM3.45742 22.4629C2.37949 22.8025 1.5957 23.8114 1.5957 25C1.5957 26.1886 2.37959 27.1975 3.45742 27.5371V22.4629ZM1.5957 31.9149C1.5957 30.7264 2.37949 29.7175 3.45742 29.3778V34.452C2.37959 34.1123 1.5957 33.1035 1.5957 31.9149ZM3.45742 36.2927C2.37949 36.6323 1.5957 37.6412 1.5957 38.8298C1.5957 40.0184 2.37959 41.0272 3.45742 41.3669V36.2927ZM6.13594 47.6253C5.83301 47.9281 5.25977 47.9917 4.83232 47.9917C3.92822 47.9917 2.94082 47.7204 2.43516 47.5597C2.07725 46.4519 1.70723 44.5315 2.3748 43.8642C2.68291 43.5561 3.05332 43.3333 3.45742 43.2067V45.7447C3.45742 46.1854 3.81455 46.5426 4.25527 46.5426H6.79316C6.6667 46.9467 6.44404 47.3173 6.13594 47.6253ZM8.63311 46.5427C8.97275 47.6205 9.98164 48.4043 11.1702 48.4043C12.3588 48.4043 13.3677 47.6204 13.7073 46.5427H8.63311ZM18.0852 48.4043C16.8966 48.4043 15.8877 47.6205 15.548 46.5427H20.6223C20.2825 47.6204 19.2737 48.4043 18.0852 48.4043ZM22.4629 46.5427C22.8025 47.6205 23.8114 48.4043 25 48.4043C26.1886 48.4043 27.1975 47.6204 27.5371 46.5427H22.4629ZM31.9149 48.4043C30.7264 48.4043 29.7175 47.6205 29.3778 46.5427H34.452C34.1123 47.6204 33.1035 48.4043 31.9149 48.4043ZM36.2927 46.5427C36.6323 47.6205 37.6412 48.4043 38.8298 48.4043C40.0184 48.4043 41.0272 47.6204 41.3669 46.5427H36.2927ZM5.05322 44.9469V5.05322H44.9469V44.947H5.05322V44.9469ZM45.1678 47.9917C46.0764 47.9917 47.0596 47.7214 47.564 47.5605C47.9203 46.4517 48.2897 44.5286 47.6252 43.8643C47.3173 43.5562 46.9467 43.3334 46.5426 43.2069V45.7448C46.5426 46.1855 46.1855 46.5427 45.7447 46.5427H43.2068C43.3334 46.9469 43.5561 47.3172 43.8642 47.6253C44.167 47.9281 44.7402 47.9917 45.1678 47.9917ZM48.4043 38.8298C48.4043 40.0184 47.6205 41.0272 46.5426 41.367V36.2927C47.6204 36.6323 48.4043 37.6412 48.4043 38.8298ZM46.5426 34.452C47.6205 34.1124 48.4043 33.1035 48.4043 31.9149C48.4043 30.7263 47.6204 29.7175 46.5426 29.3778V34.452ZM48.4043 25C48.4043 26.1886 47.6205 27.1975 46.5426 27.5371V22.4629C47.6204 22.8025 48.4043 23.8114 48.4043 25ZM46.5426 15.548V20.6223C47.6204 20.2825 48.4043 19.2737 48.4043 18.0852C48.4043 16.8966 47.6204 15.8877 46.5426 15.548Z" fill="#C7A961"/>
<path d="M42.5532 6.64893H13.8298C13.3891 6.64893 13.0319 7.00605 13.0319 7.44678C13.0319 7.8875 13.3891 8.24463 13.8298 8.24463H41.7553V41.7553H8.24473V8.24473H10.6384C11.0791 8.24473 11.4362 7.8876 11.4362 7.44687C11.4362 7.00615 11.0791 6.64902 10.6384 6.64902H7.44678C7.00605 6.64902 6.64893 7.00615 6.64893 7.44687V42.5532C6.64893 42.9939 7.00605 43.3511 7.44678 43.3511H42.5531C42.9938 43.3511 43.351 42.9939 43.351 42.5532V7.44678C43.3511 7.00605 42.9939 6.64893 42.5532 6.64893Z" fill="#C7A961"/>
<path d="M30.2107 10.8224C28.3594 10.8224 26.5691 11.3315 24.9999 12.2995C23.4307 11.3315 21.6404 10.8224 19.7891 10.8224C14.3034 10.8224 9.84033 15.2854 9.84033 20.7711C9.84033 25.3317 12.2188 29.9235 16.7185 34.0499C19.8366 36.9094 22.9636 38.6221 23.095 38.6934L24.6188 39.5215C24.7376 39.586 24.8687 39.6183 24.9998 39.6183C25.1309 39.6183 25.262 39.586 25.3808 39.5215L26.9046 38.6934C27.0046 38.639 29.3839 37.3371 32.0459 35.1267C32.3851 34.8452 32.4315 34.3421 32.1501 34.0031C31.8685 33.6639 31.3654 33.6175 31.0265 33.899C28.4832 36.011 26.237 37.24 26.1427 37.2914L24.9999 37.9124L23.857 37.2913C23.7324 37.2236 20.7724 35.6023 17.7971 32.8739C13.6356 29.0575 11.4361 24.8725 11.4361 20.771C11.4361 16.1652 15.1833 12.418 19.7892 12.418C21.4952 12.418 23.1399 12.9333 24.5453 13.9082C24.8188 14.0979 25.1813 14.0979 25.4548 13.9082C26.8603 12.9333 28.5049 12.418 30.2109 12.418C34.8168 12.418 38.5639 16.1652 38.5639 20.771C38.5639 24.47 36.7498 28.2818 33.318 31.7941C33.01 32.1093 33.0158 32.6144 33.3311 32.9223C33.6462 33.2304 34.1515 33.2243 34.4593 32.9093C38.1884 29.0927 40.1595 24.8953 40.1595 20.771C40.1595 15.2855 35.6965 10.8224 30.2107 10.8224Z" fill="#C7A961"/>
</svg>
