<svg width="16" height="16" viewBox="0 0 16 16" fill="none" xmlns="http://www.w3.org/2000/svg">
<path fill-rule="evenodd" clip-rule="evenodd" d="M7.33893 0.823233C7.54837 0.353968 7.65314 0.119336 7.79898 0.0470819C7.92564 -0.015694 8.07438 -0.015694 8.20104 0.0470819C8.34688 0.119336 8.45164 0.353968 8.66108 0.823233L10.3294 4.56099C10.3914 4.69971 10.4223 4.76908 10.4702 4.82219C10.5126 4.8692 10.5644 4.90679 10.6222 4.93252C10.6876 4.96162 10.7633 4.96958 10.9145 4.98552L14.9897 5.41506C15.5013 5.46898 15.757 5.49594 15.8709 5.61212C15.9698 5.71304 16.0158 5.85435 15.9952 5.99407C15.9715 6.15489 15.7804 6.32683 15.3982 6.67079L12.3541 9.41042C12.2412 9.51206 12.1847 9.56293 12.1489 9.62482C12.1173 9.67966 12.0975 9.74047 12.0909 9.80335C12.0833 9.87446 12.0991 9.94873 12.1307 10.0974L12.9809 14.1005C13.0877 14.6032 13.1411 14.8544 13.0656 14.9984C13 15.1237 12.8797 15.2109 12.7403 15.2345C12.5798 15.2616 12.3569 15.1333 11.9113 14.8767L8.36162 12.832C8.2299 12.7561 8.16403 12.7183 8.09401 12.7033C8.03204 12.6902 7.96798 12.6902 7.90601 12.7033C7.83598 12.7183 7.77012 12.7561 7.63839 12.832L4.08876 14.8767C3.64312 15.1333 3.4203 15.2616 3.25979 15.2345C3.12037 15.2109 3 15.1237 2.93446 14.9984C2.85902 14.8544 2.91239 14.6032 3.01914 14.1005L3.86935 10.0974C3.90091 9.94873 3.91669 9.87446 3.9092 9.80335C3.90256 9.74047 3.88278 9.67966 3.85111 9.62482C3.81533 9.56293 3.75884 9.51206 3.64587 9.41042L0.601847 6.67079C0.219686 6.32683 0.0286016 6.15489 0.0048438 5.99407C-0.0157837 5.85435 0.0301849 5.71304 0.129106 5.61212C0.242992 5.49594 0.4988 5.46898 1.01042 5.41506L5.08551 4.98552C5.23676 4.96958 5.31238 4.96162 5.37777 4.93252C5.43563 4.90679 5.48743 4.8692 5.52983 4.82219C5.57773 4.76908 5.60869 4.69971 5.67062 4.56099L7.33893 0.823233Z" fill="#C7A961"/>
</svg>
